<?xml version="1.0" encoding="UTF-8"?>
<svg version="1.1" xmlns="http://www.w3.org/2000/svg" width="32" height="32">
<path d="M0 0 C4.68308185 0.33923384 7.13844856 2.43599221 10.625 5.4375 C13.37396084 7.78353097 15.99151019 9.99434013 19 12 C19.1875 14.625 19.1875 14.625 19 17 C18.22914062 17.02578125 17.45828125 17.0515625 16.6640625 17.078125 C15.66117188 17.13484375 14.65828125 17.1915625 13.625 17.25 C12.62726562 17.29640625 11.62953125 17.3428125 10.6015625 17.390625 C7.87253701 17.71812004 7.87253701 17.71812004 6.7109375 19.921875 C6.47632813 20.60765625 6.24171875 21.2934375 6 22 C5.67 22.66 5.34 23.32 5 24 C3.35 24 1.7 24 0 24 C-1.21858107 21.56283785 -1.12925575 19.96725943 -1.1328125 17.24609375 C-1.13410156 16.30958984 -1.13539063 15.37308594 -1.13671875 14.40820312 C-1.13285156 13.42787109 -1.12898437 12.44753906 -1.125 11.4375 C-1.12886719 10.45330078 -1.13273438 9.46910156 -1.13671875 8.45507812 C-1.13542969 7.51986328 -1.13414062 6.58464844 -1.1328125 5.62109375 C-1.13168457 4.7592749 -1.13055664 3.89745605 -1.12939453 3.00952148 C-1 1 -1 1 0 0 Z " fill="#000000" transform="translate(9,4)"/>
</svg>
